<svg xmlns="http://www.w3.org/2000/svg" xmlns:xlink="http://www.w3.org/1999/xlink" width="336" zoomAndPan="magnify" viewBox="0 0 252 72" height="96" preserveAspectRatio="xMidYMid meet" version="1.0"><defs><g/><clipPath id="1d7ab5e0f1"><path d="M 7.199219 7.199219 L 245.664062 7.199219 L 245.664062 65.898438 L 7.199219 65.898438 Z M 7.199219 7.199219 " clip-rule="nonzero"/></clipPath><clipPath id="c9046dc10d"><path d="M 13.046875 12.722656 L 170.679688 12.722656 L 170.679688 60.433594 L 13.046875 60.433594 Z M 13.046875 12.722656 " clip-rule="nonzero"/></clipPath></defs><g clip-path="url(#1d7ab5e0f1)"><path stroke-linecap="butt" transform="matrix(1.221521, 0, 0, 1.221699, 7.2, 7.200151)" fill="none" stroke-linejoin="miter" d="M -0.000639719 -0.00076306 L 195.218888 -0.00076306 L 195.218888 48.046449 L -0.000639719 48.046449 L -0.000639719 -0.00076306 " stroke="#000000" stroke-width="2.453201" stroke-opacity="1" stroke-miterlimit="4"/></g><g clip-path="url(#c9046dc10d)"><path fill="#000000" d="M 13.046875 12.722656 L 170.339844 12.722656 L 170.339844 60.078125 L 13.046875 60.078125 Z M 13.046875 12.722656 " fill-opacity="1" fill-rule="nonzero"/></g><g fill="#ffffff" fill-opacity="1"><g transform="translate(20.27453, 41.186978)"><g><path d="M 6.808594 0.289062 C 10.257812 0.289062 12.375 -1.347656 12.375 -4.089844 C 12.375 -6.394531 10.859375 -7.765625 7.246094 -8.617188 C 5.023438 -9.136719 4.257812 -9.695312 4.257812 -10.589844 C 4.257812 -11.542969 5.105469 -12.125 6.5 -12.125 C 8.015625 -12.125 8.925781 -11.335938 8.925781 -10.027344 L 12.105469 -10.027344 C 12.105469 -12.953125 9.902344 -14.824219 6.457031 -14.824219 C 3.113281 -14.824219 1.039062 -13.183594 1.039062 -10.527344 C 1.039062 -8.160156 2.636719 -6.746094 6.042969 -6.019531 C 8.097656 -5.585938 9.03125 -4.984375 9.03125 -3.964844 C 9.03125 -2.988281 8.160156 -2.429688 6.789062 -2.429688 C 5.191406 -2.429688 4.152344 -3.238281 4.152344 -4.628906 L 0.914062 -4.628906 C 0.914062 -1.621094 3.15625 0.289062 6.808594 0.289062 Z M 6.808594 0.289062 "/></g></g></g><g fill="#ffffff" fill-opacity="1"><g transform="translate(35.154258, 41.186978)"><g><path d="M 1.742188 0 L 11.523438 0 L 11.523438 -2.804688 L 5.023438 -2.804688 L 5.023438 -5.980469 L 10.734375 -5.980469 L 10.734375 -8.742188 L 5.023438 -8.742188 L 5.023438 -11.75 L 11.292969 -11.75 L 11.292969 -14.53125 L 1.742188 -14.53125 Z M 1.742188 0 "/></g></g></g><g fill="#ffffff" fill-opacity="1"><g transform="translate(49.307698, 41.186978)"><g><path d="M 1.742188 0 L 5.023438 0 L 5.023438 -8.761719 L 8.554688 -3.589844 L 10.835938 -3.589844 L 14.367188 -8.742188 L 14.367188 0 L 17.648438 0 L 17.648438 -14.53125 L 14.863281 -14.53125 L 9.714844 -6.996094 L 4.546875 -14.53125 L 1.742188 -14.53125 Z M 1.742188 0 "/></g></g></g><g fill="#ffffff" fill-opacity="1"><g transform="translate(70.267561, 41.186978)"><g><path d="M 1.742188 0 L 5.046875 0 L 5.046875 -14.53125 L 1.742188 -14.53125 Z M 1.742188 0 "/></g></g></g><g fill="#ffffff" fill-opacity="1"><g transform="translate(78.631388, 41.186978)"><g><path d="M 1.742188 0 L 5.023438 0 L 5.023438 -8.90625 L 11.4375 0 L 14.242188 0 L 14.242188 -14.53125 L 10.960938 -14.53125 L 10.960938 -5.6875 L 4.546875 -14.53125 L 1.742188 -14.53125 Z M 1.742188 0 "/></g></g></g><g fill="#ffffff" fill-opacity="1"><g transform="translate(96.18804, 41.186978)"><g><path d="M 0.1875 0 L 3.714844 0 L 4.691406 -2.511719 L 10.464844 -2.511719 L 11.4375 0 L 14.96875 0 L 9.195312 -14.53125 L 5.957031 -14.53125 Z M 5.542969 -5.105469 L 7.578125 -10.421875 L 9.632812 -5.105469 Z M 5.542969 -5.105469 "/></g></g></g><g fill="#ffffff" fill-opacity="1"><g transform="translate(112.914641, 41.186978)"><g><path d="M 1.742188 0 L 5.046875 0 L 5.046875 -4.527344 L 7.226562 -4.527344 L 9.820312 0 L 13.640625 0 L 10.628906 -5.046875 C 12.375 -5.8125 13.390625 -7.390625 13.390625 -9.53125 C 13.390625 -12.621094 11.273438 -14.53125 7.953125 -14.53125 L 1.742188 -14.53125 Z M 5.003906 -7.308594 L 5.003906 -11.710938 L 7.515625 -11.710938 C 9.136719 -11.710938 10.046875 -10.921875 10.046875 -9.507812 C 10.046875 -8.097656 9.136719 -7.308594 7.515625 -7.308594 Z M 5.003906 -7.308594 "/></g></g></g><g fill="#ffffff" fill-opacity="1"><g transform="translate(129.101697, 41.186978)"><g><path d="M 6.808594 0.289062 C 10.257812 0.289062 12.375 -1.347656 12.375 -4.089844 C 12.375 -6.394531 10.859375 -7.765625 7.246094 -8.617188 C 5.023438 -9.136719 4.257812 -9.695312 4.257812 -10.589844 C 4.257812 -11.542969 5.105469 -12.125 6.5 -12.125 C 8.015625 -12.125 8.925781 -11.335938 8.925781 -10.027344 L 12.105469 -10.027344 C 12.105469 -12.953125 9.902344 -14.824219 6.457031 -14.824219 C 3.113281 -14.824219 1.039062 -13.183594 1.039062 -10.527344 C 1.039062 -8.160156 2.636719 -6.746094 6.042969 -6.019531 C 8.097656 -5.585938 9.03125 -4.984375 9.03125 -3.964844 C 9.03125 -2.988281 8.160156 -2.429688 6.789062 -2.429688 C 5.191406 -2.429688 4.152344 -3.238281 4.152344 -4.628906 L 0.914062 -4.628906 C 0.914062 -1.621094 3.15625 0.289062 6.808594 0.289062 Z M 6.808594 0.289062 "/></g></g></g><g fill="#ffffff" fill-opacity="1"><g transform="translate(143.981429, 41.186978)"><g><path d="M 1.742188 0 L 5.046875 0 L 5.046875 -5.875 L 6.789062 -5.875 C 7.058594 -5.875 7.289062 -5.875 7.535156 -5.894531 L 10.652344 0 L 14.492188 0 L 10.566406 -7.121094 C 11.148438 -7.679688 11.585938 -8.410156 11.957031 -9.363281 L 13.972656 -14.53125 L 10.402344 -14.53125 L 9.03125 -10.753906 C 8.53125 -9.382812 7.929688 -8.949219 6.289062 -8.949219 L 5.046875 -8.949219 L 5.046875 -14.53125 L 1.742188 -14.53125 Z M 1.742188 0 "/></g></g></g><g fill="#ffffff" fill-opacity="1"><g transform="translate(160.645778, 41.186978)"><g><path d="M 1.742188 0 L 5.046875 0 L 5.046875 -14.53125 L 1.742188 -14.53125 Z M 1.742188 0 "/></g></g></g><g fill="#000000" fill-opacity="1"><g transform="translate(178.406175, 43.044861)"><g><path d="M 1.71875 0 L 6.410156 0 L 6.410156 -4.621094 L 8.171875 -4.621094 L 10.496094 0 L 15.8125 0 L 12.816406 -5.480469 C 14.535156 -6.433594 15.511719 -8.152344 15.511719 -10.425781 C 15.511719 -14.023438 13.074219 -16.253906 9.125 -16.253906 L 1.71875 -16.253906 Z M 6.316406 -8.359375 L 6.316406 -12.421875 L 8.5 -12.421875 C 9.984375 -12.421875 10.796875 -11.703125 10.796875 -10.402344 C 10.796875 -9.101562 9.984375 -8.359375 8.5 -8.359375 Z M 6.316406 -8.359375 "/></g></g></g><g fill="#000000" fill-opacity="1"><g transform="translate(195.124197, 43.044861)"><g><path d="M 0.117188 0 L 5.085938 0 L 5.96875 -2.300781 L 11.515625 -2.300781 L 12.398438 0 L 17.390625 0 L 11.078125 -16.253906 L 6.433594 -16.253906 Z M 6.941406 -5.734375 L 8.753906 -10.773438 L 10.566406 -5.734375 Z M 6.941406 -5.734375 "/></g></g></g><g fill="#000000" fill-opacity="1"><g transform="translate(212.631677, 43.044861)"><g><path d="M 1.71875 0 L 8.613281 0 C 13.863281 0 17.347656 -3.226562 17.347656 -8.128906 C 17.347656 -13.003906 13.863281 -16.253906 8.613281 -16.253906 L 1.71875 -16.253906 Z M 6.410156 -4.203125 L 6.410156 -12.050781 L 8.476562 -12.050781 C 10.960938 -12.050781 12.5625 -10.519531 12.5625 -8.128906 C 12.5625 -5.734375 10.960938 -4.203125 8.476562 -4.203125 Z M 6.410156 -4.203125 "/></g></g></g></svg>